# xmcd CD database file
#
# Track frame offsets:
#	150
#	20432
#	34271
#	50528
#	61640
#	81007
#	97548
#	114429
#	130001
#	150066
#	163686
#	180105
#	196533
#	214515
#	232092
#	252736
#
# Disc length: 3618 seconds
#
# Revision: 0
# Processed by: cddbd v1.5.2PL0 Copyright (c) Steve Scherf et al.
# Submitted via: CDex 1.70beta2
#
DISCID=b40e2010
DTITLE=Various Artist - Café Moods
DYEAR=2006
DGENRE=Jazz
TTITLE0=When I Fall In Love
TTITLE1=Days Of Wine and Roses
TTITLE2=Lullaby Of Birdland
TTITLE3=Here There and Everywhere
TTITLE4=A Certain Smile
TTITLE5=True Love
TTITLE6=Everytime We Say Goodbye
TTITLE7=Unforgettable
TTITLE8=All In Love Is Fair
TTITLE9=Do You Know Where You're Going To?
TTITLE10=Georgia On My Mind
TTITLE11=Teach Me Tonight
TTITLE12=Tonight
TTITLE13=Songbird
TTITLE14=My Funny Valentine
TTITLE15=The Long And Winding Road
EXTD=YEAR: 2006
EXTT0=
EXTT1=
EXTT2=
EXTT3=
EXTT4=
EXTT5=
EXTT6=
EXTT7=
EXTT8=
EXTT9=
EXTT10=
EXTT11=
EXTT12=
EXTT13=
EXTT14=
EXTT15=
PLAYORDER=
